<svg width="28" height="27" viewBox="0 0 28 27" fill="none" xmlns="http://www.w3.org/2000/svg">
<path fill-rule="evenodd" clip-rule="evenodd" d="M0 13.8418C0 6.19703 6.14764 0 13.7289 0C21.3109 0 27.4576 6.19703 27.4576 13.8418C27.4576 19.9554 23.5289 25.142 18.0769 26.9744C17.381 27.1103 17.1339 26.6787 17.1339 26.3103C17.1339 26.1592 17.1356 25.8942 17.138 25.54C17.1427 24.8261 17.1498 23.7497 17.1498 22.5118C17.1498 21.2204 16.711 20.3781 16.2186 19.9485C19.2757 19.6058 22.4874 18.4352 22.4874 13.1188C22.4874 11.6076 21.9547 10.3729 21.0745 9.40351C21.217 9.05487 21.6872 7.64704 20.9399 5.74044C20.9399 5.74044 19.7886 5.36842 17.1682 7.15927C16.071 6.85259 14.8957 6.69878 13.7289 6.69351C12.5622 6.69878 11.3877 6.85259 10.2926 7.15927C7.66904 5.36842 6.51617 5.74044 6.51617 5.74044C5.77071 7.64704 6.24063 9.05487 6.38317 9.40351C5.50494 10.3729 4.96863 11.6076 4.96863 13.1188C4.96863 18.4226 8.1742 19.6095 11.2236 19.9595C10.831 20.3052 10.4752 20.9158 10.3519 21.8104C9.56851 22.1641 7.58128 22.7759 6.3568 20.6598C6.3568 20.6598 5.63089 19.331 4.25227 19.2334C4.25227 19.2334 2.91275 19.2157 4.15837 20.0748C4.15837 20.0748 5.05821 20.5002 5.68272 22.1001C5.68272 22.1001 6.48866 24.5706 10.3081 23.7333C10.3113 24.3619 10.3165 24.971 10.3206 25.4491C10.3241 25.8506 10.3267 26.1597 10.3267 26.3103C10.3267 26.6759 10.0748 27.1043 9.38868 26.9762C3.93376 25.1459 0 19.9574 0 13.8418ZM5.24033 19.779C5.21015 19.8471 5.10304 19.8675 5.00547 19.8208C4.90608 19.7761 4.85025 19.6833 4.88247 19.6149C4.91197 19.5448 5.01931 19.5253 5.11847 19.5723C5.21809 19.617 5.27482 19.7107 5.24033 19.779ZM5.79537 20.3978C5.73002 20.4584 5.60226 20.4303 5.51558 20.3345C5.42594 20.239 5.40915 20.1112 5.47541 20.0497C5.54281 19.9891 5.66671 20.0175 5.75657 20.113C5.8462 20.2097 5.86368 20.3366 5.79537 20.3978ZM6.33568 21.1873C6.25172 21.2456 6.11443 21.1909 6.02956 21.0691C5.9456 20.9472 5.9456 20.801 6.03137 20.7425C6.11647 20.6839 6.25172 20.7366 6.33772 20.8575C6.42145 20.9815 6.42145 21.1276 6.33568 21.1873ZM7.0759 21.9501C7.00079 22.033 6.84081 22.0107 6.72372 21.8977C6.6039 21.7872 6.57055 21.6304 6.64589 21.5475C6.7219 21.4645 6.88279 21.4878 7.00079 21.6C7.1197 21.7103 7.15601 21.8682 7.0759 21.9501ZM8.09708 22.3924C8.06394 22.4997 7.90986 22.5485 7.75465 22.5029C7.59966 22.4559 7.49823 22.3302 7.52954 22.2217C7.56177 22.1137 7.71653 22.0628 7.87288 22.1116C8.02764 22.1584 8.1293 22.2832 8.09708 22.3924ZM9.2185 22.4749C9.22236 22.588 9.09075 22.6817 8.92781 22.6837C8.76398 22.6874 8.63145 22.5959 8.62964 22.4847C8.62964 22.3705 8.7583 22.2777 8.92214 22.275C9.08507 22.2718 9.2185 22.3626 9.2185 22.4749ZM10.2622 22.2966C10.2817 22.4069 10.1684 22.5201 10.0066 22.5503C9.84757 22.5794 9.7003 22.5113 9.6801 22.4019C9.66036 22.2889 9.77564 22.1756 9.93448 22.1464C10.0965 22.1182 10.2415 22.1845 10.2622 22.2966Z" fill="white"/>
</svg>
