<svg width="28" height="28" viewBox="0 0 28 28" fill="none" xmlns="http://www.w3.org/2000/svg">
<path fill-rule="evenodd" clip-rule="evenodd" d="M0 0H28V28H0V0ZM6.44472 8.74969C6.61714 8.9051 6.7052 9.13333 6.68183 9.36424V17.6781C6.73299 17.978 6.63845 18.2844 6.42716 18.5033L4.45129 20.9V21.2161H10.054V20.9L8.07811 18.5033C7.86527 18.2847 7.76488 17.9804 7.80588 17.6781V10.488L12.7236 21.2161H13.2944L17.5184 10.488V19.0389C17.5184 19.2671 17.5184 19.311 17.3691 19.4603L15.8499 20.9352V21.2512H23.2264V20.9352L21.7599 19.4954C21.6304 19.3967 21.5662 19.2345 21.593 19.074V8.4951C21.5662 8.33457 21.6304 8.17238 21.7599 8.0737L23.2616 6.63392V6.31787H18.0628L14.357 15.5623L10.1418 6.31787H4.6884V6.63392L6.44472 8.74969Z" fill="white"/>
</svg>
