<svg width="28" height="28" viewBox="0 0 28 28" fill="none" xmlns="http://www.w3.org/2000/svg">
<path fill-rule="evenodd" clip-rule="evenodd" d="M14 28C21.732 28 28 21.732 28 14C28 6.26801 21.732 0 14 0C6.26801 0 0 6.26801 0 14C0 21.732 6.26801 28 14 28ZM10.5456 6.72345C10.8158 6.18228 11.0757 5.99047 11.4464 6.00036H11.446C11.5022 6.00121 11.5581 6.0063 11.6134 6.01558C11.9233 6.08865 12.1171 6.26981 12.2716 6.48826C12.6191 6.92401 12.8898 7.39669 13.1604 7.90665C13.5963 8.72617 14.2459 10.614 14.6845 11.8887C14.7399 12.0495 14.7918 12.2005 14.8396 12.3384L14.2991 12.289C14.1595 12.289 14.0169 12.2749 13.8738 12.2608C13.5006 12.2241 13.1242 12.1871 12.7897 12.3978C12.6191 12.5344 12.5002 12.6905 12.4221 12.8556C12.3345 12.7647 12.2484 12.6817 12.1719 12.6178C12.1062 12.5626 12.0466 12.515 11.8985 12.4275C11.8834 12.4211 11.8708 12.4161 11.8597 12.4116C11.8474 12.4066 11.8369 12.4024 11.8264 12.3978C11.7744 12.253 11.7202 12.1021 11.6648 11.9478C11.3215 10.9917 10.9315 9.90586 10.7378 9.34256C10.5859 8.87924 10.4721 8.41591 10.3583 7.95259L10.3514 7.92454C10.3514 7.48726 10.3891 7.08728 10.5456 6.72345ZM17.9285 6.82126C18.1995 6.58492 18.4622 6.45096 18.7012 6.43193C18.9406 6.41252 19.1548 6.50614 19.3286 6.72307C19.6381 7.08728 19.7165 7.48726 19.6789 7.92454C19.6021 8.5325 19.4132 9.14046 19.2242 9.74841L19.2145 9.77984C19.0294 10.2986 18.6917 11.2112 18.4022 11.9932C18.3052 12.2552 18.2136 12.5026 18.1351 12.7156C17.3752 12.6117 16.2773 12.4792 15.8457 12.4347C15.8022 12.4306 15.7475 12.4254 15.685 12.4194C15.5453 12.406 15.3667 12.3889 15.1871 12.3723C15.1934 12.3551 15.2 12.3384 15.2066 12.3219C15.2183 12.2927 15.2298 12.2639 15.2388 12.2326C15.5483 11.3227 16.2257 9.51382 16.6901 8.67655C16.9608 8.13119 17.2703 7.54815 17.6959 7.07548C17.7247 6.99494 17.797 6.93412 17.8635 6.87823C17.8865 6.85885 17.9089 6.84007 17.9285 6.82126ZM10.9211 12.7826C10.9649 12.7742 11.0095 12.7707 11.0541 12.7723C11.3527 12.7795 11.5621 12.9999 11.7439 13.2229C12.2472 13.8413 13.6377 15.9105 13.6377 16.5187C13.6377 16.5735 13.6269 16.6286 13.6048 16.6834C13.5031 16.9647 13.2201 17.2691 12.9338 17.3898C12.5456 17.5503 12.2533 17.2561 12.0004 17.0016C11.956 16.9568 11.9127 16.9133 11.8704 16.8737C11.7047 16.707 11.5373 16.5377 11.3732 16.3683C11.3527 16.3469 11.3316 16.3254 11.3103 16.3038C11.3037 16.2971 11.297 16.2903 11.2903 16.2835C10.6973 15.6624 10.1548 15.0066 9.88418 14.4997C9.86358 14.4504 9.84002 14.4058 9.81659 14.3614C9.75303 14.2409 9.6904 14.1223 9.6904 13.9171V13.8813C9.68119 13.7443 9.73884 13.5898 9.83734 13.4398C9.84462 13.4316 9.85133 13.4231 9.85808 13.4146C9.86727 13.403 9.87653 13.3913 9.88738 13.3801C10.1624 13.0889 10.51 12.8556 10.9211 12.7826ZM14.2602 12.872H14.2603C14.4457 12.8882 14.6489 12.9045 14.8644 12.9217C16.088 13.0195 17.7085 13.149 18.7284 13.4904C18.8243 13.5264 18.9102 13.5624 18.996 13.5984C19.0838 13.6352 19.1714 13.672 19.2693 13.7085C19.5184 13.825 19.6901 14.0137 19.809 14.2337C19.8483 14.3479 19.8827 14.4639 19.9107 14.58C19.9387 14.7182 19.962 14.8578 19.978 14.9948C20 15.3503 20 15.7442 20 15.9744L19.9998 15.9789C19.9967 16.0578 19.9935 16.1381 19.9872 16.2184C19.95 16.9453 19.795 17.6733 19.5228 18.3279C18.9426 19.6732 18.0133 20.7286 16.6201 21.3828C15.9242 21.7112 15.1515 21.9285 14.376 21.9639C13.3093 22.076 12.2302 21.9261 11.2418 21.5285C9.92662 21.0186 8.61099 19.7459 8.22343 18.5821C8.02925 18.0006 7.95278 17.4552 8.02925 16.8368C8.11373 16.2808 8.4064 15.8614 8.85522 15.5893C9.43899 15.3206 10.3398 16.206 10.6784 16.5387C10.7143 16.5741 10.744 16.6032 10.7662 16.6241C11.1918 17.0256 11.5405 17.4982 11.8112 18.0082C11.85 18.0794 11.8892 18.1525 11.9281 18.2251C11.9657 18.4436 11.9269 18.5894 11.6951 18.6978C11.4248 18.8063 11.1918 18.8063 10.9211 18.6978C10.6113 18.5894 10.2781 18.3085 10.0467 18.0527C9.94645 17.9405 9.85657 17.8273 9.76655 17.714C9.68262 17.6083 9.59856 17.5024 9.50583 17.397C9.48656 17.3617 9.45754 17.3347 9.42859 17.3078C9.39918 17.2805 9.36985 17.2532 9.35088 17.2174C9.1571 17.3985 9.1571 17.5443 9.27441 17.8358C9.31165 18.1254 9.50583 18.417 9.69961 18.6712C10.086 19.1438 10.6505 19.5347 11.2699 19.6805C11.6186 19.7516 12.005 19.7535 12.3148 19.5347C12.7008 19.2809 12.895 18.8809 12.7793 18.4436C12.7793 18.4283 12.7725 18.4131 12.7646 18.3954C12.7534 18.3705 12.74 18.3405 12.74 18.2978C12.724 18.2607 12.7053 18.2222 12.6863 18.1834L12.682 18.1745C12.9338 18.1955 13.2309 18.1821 13.4283 18.0588C13.586 17.9709 13.7129 17.8655 13.8238 17.7555C13.7802 17.9161 13.7442 18.1018 13.7173 18.3279C13.7173 18.5091 13.719 18.6921 13.7566 18.8733C13.7958 19.2006 13.8739 19.5275 14.0288 19.819C14.221 20.1101 14.454 20.2917 14.8404 20.3643C14.8796 20.1832 14.8404 20.0017 14.8012 19.8544C14.7639 19.6732 14.7243 19.5275 14.6482 19.3832C14.376 18.7275 14.4917 18.1091 14.8404 17.5279C15.3441 16.7264 16.0399 16.1453 16.9688 15.8169C17.2002 15.7453 17.396 15.6726 17.6274 15.5642C17.7431 15.5269 17.8588 15.4542 17.8212 15.3084C17.7823 15.1269 17.7427 14.9815 17.5505 14.9457C17.3567 14.9084 17.2002 14.9084 17.008 14.9084C16.1949 14.9084 15.3829 14.9084 14.6074 14.7627C14.2603 14.69 13.9115 14.5815 13.6409 14.4C13.558 14.3452 13.4923 14.2828 13.4299 14.2204C13.3546 14.0879 13.2781 13.9601 13.1997 13.8398C13.148 13.6864 13.1216 13.5232 13.1372 13.3428C13.1372 13.1258 13.2922 13.0162 13.4859 12.9432C13.7566 12.872 13.9896 12.872 14.2602 12.872ZM14.3776 16.1274C14.3319 15.8271 14.1834 15.6026 14.0364 15.3811C14.5429 15.5326 15.0814 15.6011 15.652 15.6353C15.6325 15.6491 15.6131 15.6627 15.5938 15.6764C15.1535 15.987 14.7494 16.2721 14.454 16.6891L14.3351 16.8338C14.4024 16.5422 14.4008 16.2808 14.3776 16.1274Z" fill="white"/>
</svg>
