<svg width="25" height="24" viewBox="0 0 25 24" fill="none" xmlns="http://www.w3.org/2000/svg">
<path fill-rule="evenodd" clip-rule="evenodd" d="M5.95591 2.74757C5.92155 1.18792 4.80623 0 2.99513 0C1.18403 0 0 1.18792 0 2.74757C0 4.27491 1.14904 5.49704 2.92641 5.49704H2.96024C4.80623 5.49704 5.95591 4.27491 5.95591 2.74757ZM5.60722 7.66836H0.313055V23.5751H5.60722V7.66836ZM18.6044 7.29447C22.0882 7.29447 24.7 9.56843 24.7 14.4543L24.6998 23.5748H19.4058V15.0646C19.4058 12.9271 18.6397 11.4684 16.7232 11.4684C15.2606 11.4684 14.3894 12.4518 14.0068 13.4015C13.8668 13.7419 13.8325 14.2161 13.8325 14.6915V23.5752H8.53765C8.53765 23.5752 8.60743 9.16102 8.53765 7.66841H13.8325V9.92147C14.5351 8.83838 15.7936 7.29447 18.6044 7.29447Z" fill="#4152ED"/>
</svg>
