<svg width="28" height="28" viewBox="0 0 28 28" fill="none" xmlns="http://www.w3.org/2000/svg">
<path fill-rule="evenodd" clip-rule="evenodd" d="M14 0C6.26801 0 0 6.26801 0 14C0 21.732 6.26801 28 14 28C21.732 28 28 21.732 28 14C28 6.26801 21.732 0 14 0ZM10.9219 6.57838C11.7184 6.54213 11.9728 6.53326 14.0007 6.53326H13.9984C16.0268 6.53326 16.2804 6.54213 17.0768 6.57838C17.8717 6.61478 18.4146 6.74062 18.8906 6.92527C19.3822 7.11583 19.7975 7.37094 20.2129 7.78628C20.6282 8.2013 20.8833 8.61789 21.0747 9.10898C21.2582 9.58374 21.3842 10.1263 21.4215 10.9212C21.4573 11.7177 21.4667 11.9722 21.4667 14C21.4667 16.0279 21.4573 16.2817 21.4215 17.0782C21.3842 17.8728 21.2582 18.4155 21.0747 18.8904C20.8833 19.3814 20.6282 19.7979 20.2129 20.213C19.798 20.6283 19.382 20.884 18.8911 21.0747C18.416 21.2594 17.8728 21.3852 17.0779 21.4216C16.2815 21.4579 16.0278 21.4668 13.9998 21.4668C11.9721 21.4668 11.7177 21.4579 10.9213 21.4216C10.1265 21.3852 9.5838 21.2594 9.10873 21.0747C8.61795 20.884 8.20136 20.6283 7.78649 20.213C7.37131 19.7979 7.1162 19.3814 6.92533 18.8903C6.74084 18.4155 6.61499 17.8729 6.57844 17.078C6.54235 16.2816 6.53333 16.0279 6.53333 14C6.53333 11.9722 6.54266 11.7175 6.57828 10.9211C6.61406 10.1265 6.74006 9.58374 6.92517 9.10882C7.11651 8.61789 7.37162 8.2013 7.78696 7.78628C8.20199 7.3711 8.61857 7.11598 9.10966 6.92527C9.58442 6.74062 10.127 6.61478 10.9219 6.57838ZM13.7518 7.87884C13.6008 7.87878 13.4609 7.87871 13.3308 7.87892V7.87705C11.9392 7.87861 11.6723 7.88794 10.9835 7.91905C10.2555 7.95249 9.86018 8.07383 9.59698 8.1765C9.24853 8.31214 8.99964 8.47392 8.73831 8.73526C8.47697 8.99659 8.31488 9.24549 8.17954 9.59393C8.07734 9.85714 7.9557 10.2523 7.92241 10.9803C7.88663 11.7674 7.87947 12.0026 7.87947 13.9965C7.87947 15.9904 7.88663 16.2269 7.92241 17.014C7.95554 17.742 8.07734 18.1371 8.17954 18.4C8.31519 18.7486 8.47697 18.9969 8.73831 19.2582C8.99964 19.5196 9.24853 19.6814 9.59698 19.8167C9.86034 19.9189 10.2555 20.0405 10.9835 20.0741C11.7706 20.1099 12.0069 20.1177 14.0006 20.1177C15.9943 20.1177 16.2307 20.1099 17.0178 20.0741C17.7458 20.0408 18.1413 19.9195 18.4042 19.8168C18.7528 19.6815 19.0009 19.5197 19.2622 19.2584C19.5236 18.9972 19.6856 18.7491 19.821 18.4006C19.9232 18.1378 20.0448 17.7426 20.0781 17.0146C20.1139 16.2275 20.1217 15.9911 20.1217 13.9984C20.1217 12.0057 20.1139 11.7692 20.0781 10.9821C20.045 10.2541 19.9232 9.859 19.821 9.59611C19.6853 9.24766 19.5236 8.99877 19.2622 8.73744C19.001 8.4761 18.7526 8.31432 18.4042 8.17899C18.141 8.07679 17.7458 7.95514 17.0178 7.92185C16.2306 7.88607 15.9943 7.87892 14.0006 7.87892C13.9145 7.87892 13.8316 7.87888 13.7518 7.87884ZM17.0903 10.0145C17.0903 9.51964 17.4917 9.11877 17.9864 9.11877V9.11846C18.481 9.11846 18.8824 9.51979 18.8824 10.0145C18.8824 10.5091 18.481 10.9105 17.9864 10.9105C17.4917 10.9105 17.0903 10.5091 17.0903 10.0145ZM10.1662 14.0002C10.1662 11.8827 11.883 10.1658 14.0005 10.1657C16.1181 10.1657 17.8346 11.8826 17.8346 14.0002C17.8346 16.1178 16.1183 17.8339 14.0007 17.8339C11.8831 17.8339 10.1662 16.1178 10.1662 14.0002ZM16.4896 14.0001C16.4896 12.6254 15.3752 11.5112 14.0007 11.5112C12.626 11.5112 11.5118 12.6254 11.5118 14.0001C11.5118 15.3746 12.626 16.489 14.0007 16.489C15.3752 16.489 16.4896 15.3746 16.4896 14.0001Z" fill="#4152ED"/>
</svg>
