<svg width="27" height="23" viewBox="0 0 27 23" fill="none" xmlns="http://www.w3.org/2000/svg">
<path fill-rule="evenodd" clip-rule="evenodd" d="M13.11 5.9355L13.1686 6.90058L12.1931 6.78241C8.64248 6.32941 5.54055 4.79315 2.90684 2.21304L1.61925 0.932826L1.28759 1.87821C0.58527 3.98564 1.03398 6.21123 2.49715 7.7081C3.27751 8.53531 3.10193 8.65348 1.75581 8.16109C1.28759 8.00353 0.877904 7.88536 0.838886 7.94444C0.702324 8.08231 1.17054 9.87461 1.54121 10.5836C2.04844 11.5684 3.08242 12.5335 4.21394 13.1047L5.16988 13.5577L4.03836 13.5774C2.94586 13.5774 2.90684 13.5971 3.02389 14.0107C3.41407 15.2909 4.95528 16.6499 6.67207 17.2407L7.88163 17.6544L6.82815 18.2846C5.26743 19.1906 3.43358 19.7027 1.59974 19.7421C0.721833 19.7618 0 19.8406 0 19.8996C0 20.0966 2.3801 21.1996 3.76523 21.6329C7.92065 22.9131 12.8564 22.3616 16.5631 20.1754C19.1968 18.6194 21.8306 15.5272 23.0596 12.5335C23.7229 10.9382 24.3862 8.02323 24.3862 6.62484C24.3862 5.71885 24.4448 5.60067 25.5373 4.51742C26.1811 3.88716 26.7858 3.19781 26.9029 3.00086C27.098 2.62664 27.0785 2.62664 26.0835 2.96147C24.4253 3.55233 24.1911 3.47355 25.0105 2.58725C25.6153 1.95699 26.3371 0.814653 26.3371 0.479828C26.3371 0.420741 26.0445 0.519219 25.7128 0.696479C25.3617 0.893435 24.5813 1.18887 23.9961 1.36613L22.9426 1.70095L21.9866 1.051C21.4599 0.696479 20.7185 0.302568 20.3284 0.184395C19.3334 -0.091343 17.8117 -0.0519519 16.9143 0.263177C14.4757 1.14948 12.9345 3.43416 13.11 5.9355Z" fill="white"/>
</svg>
